<svg width="2000" height="808" viewBox="0 0 2000 808" fill="none" xmlns="http://www.w3.org/2000/svg">
<path d="M534.436 406.636C534.436 485.654 520.23 549.71 502.706 549.71C489.683 549.71 478.486 514.318 473.598 463.696C473.442 462.107 471.115 462.146 471.015 463.739C464.961 564.236 443.301 638.595 417.505 638.595C391.708 638.595 371.43 568.87 364.62 473.214C364.244 467.932 366.909 462.897 371.495 460.25L392.243 448.272C407.297 439.584 416.283 424.017 416.283 406.636C416.283 389.255 407.297 373.693 392.243 365L371.495 353.022C366.909 350.375 364.244 345.34 364.62 340.058C371.43 244.402 392.528 174.677 417.505 174.677C442.481 174.677 464.961 249.036 471.015 349.532C471.11 351.126 473.442 351.16 473.598 349.576C478.486 298.958 489.679 263.566 502.706 263.566C520.23 263.566 534.436 327.622 534.436 406.636Z" fill="#1878E1"/>
<path d="M282.989 483.598C284.967 484.738 286.992 485.726 289.056 486.569C294.747 488.887 298.219 494.7 297.571 500.814C288.983 581.991 269.624 638.594 247.118 638.594C221.321 638.594 199.665 564.231 193.611 463.73C193.516 462.136 191.185 462.102 191.029 463.687C186.141 514.313 174.948 549.705 161.92 549.705C144.397 549.705 130.19 485.649 130.19 406.63C130.19 327.612 144.397 263.561 161.92 263.561C174.944 263.561 186.141 298.953 191.029 349.575C191.185 351.164 193.512 351.125 193.611 349.531C199.661 249.035 221.321 174.667 247.118 174.667C269.62 174.667 288.983 231.27 297.571 312.447C298.219 318.557 294.752 324.369 289.06 326.688C286.996 327.53 284.967 328.523 282.989 329.663C267.936 338.352 258.95 353.919 258.95 371.299V441.945C258.95 459.329 267.936 474.892 282.989 483.585V483.598Z" fill="#1878E1"/>
<path d="M395.559 406.635C395.559 416.524 390.447 425.376 381.884 430.32L362.927 441.263L320.699 465.647C314.369 469.3 307.127 470.255 300.326 468.497C297.925 467.888 295.585 466.934 293.352 465.647C284.789 460.703 279.677 451.846 279.677 441.958V371.312C279.677 361.424 284.789 352.572 293.352 347.627C295.585 346.336 297.925 345.386 300.326 344.773C302.529 344.199 304.778 343.918 307.028 343.918C311.722 343.918 316.42 345.153 320.699 347.627L362.927 372.008L381.884 382.95C390.447 387.894 395.559 396.746 395.559 406.635Z" fill="url(#paint0_linear_15_302)"/>
<path d="M614.397 518V270.342H671.398V364.688H765.744V270.342H822.745V518H765.744V419.723H671.398V518H614.397ZM842.554 518V337.17H895.623V518H842.554ZM840.588 288.031C840.588 272.307 854.347 258.548 870.071 258.548C885.796 258.548 899.554 272.307 899.554 288.031C899.554 303.756 885.796 317.515 870.071 317.515C854.347 317.515 840.588 303.756 840.588 288.031ZM923.279 518V270.342H1074.63V297.859H954.728V380.412H1053.01V407.93H954.728V518H923.279ZM1090.35 518V341.101H1119.83V518H1090.35ZM1086.42 291.176C1086.42 280.169 1094.28 272.307 1104.9 272.307C1115.9 272.307 1123.76 280.169 1123.76 291.176C1123.76 301.79 1115.9 309.652 1104.9 309.652C1094.28 309.652 1086.42 301.79 1086.42 291.176ZM1220.11 492.448C1249.59 492.448 1275.14 467.289 1275.14 429.551C1275.14 391.812 1249.59 366.653 1220.11 366.653C1190.62 366.653 1165.07 391.812 1165.07 429.551C1165.07 467.289 1190.62 492.448 1220.11 492.448ZM1279.07 518L1271.21 498.345C1267.28 502.669 1262.96 506.207 1257.85 509.352C1248.8 515.248 1235.83 519.966 1218.14 519.966C1172.54 519.966 1135.59 482.62 1135.59 429.551C1135.59 376.481 1172.54 339.136 1218.14 339.136C1235.83 339.136 1248.8 345.032 1257.85 350.929C1262.96 354.467 1267.28 358.398 1271.21 362.722V270.342H1300.69V518H1279.07ZM1446.3 470.827H1477.75C1465.95 496.379 1442.37 519.966 1403.06 519.966C1355.88 519.966 1318.54 482.62 1318.54 429.551C1318.54 376.481 1358.24 339.136 1401.09 339.136C1444.33 339.136 1481.68 374.122 1481.68 427.585C1481.68 432.695 1480.89 436.233 1480.5 438.985L1479.71 443.309H1349.99C1351.95 468.861 1375.15 492.448 1403.06 492.448C1426.25 492.448 1440.4 479.082 1446.3 470.827ZM1349.99 417.757H1452.19C1447.87 388.274 1426.64 366.653 1401.09 366.653C1375.54 366.653 1354.31 388.274 1349.99 417.757ZM1499.51 518V270.342H1528.99V518H1499.51ZM1558.41 518V341.101H1587.89V518H1558.41ZM1554.48 291.176C1554.48 280.169 1562.34 272.307 1572.96 272.307C1583.96 272.307 1591.82 280.169 1591.82 291.176C1591.82 301.79 1583.96 309.652 1572.96 309.652C1562.34 309.652 1554.48 301.79 1554.48 291.176ZM1629.2 460.999V368.619H1597.75V341.101H1611.51C1626.06 341.101 1633.13 334.025 1633.13 319.48V293.928H1658.68V341.101H1697.99V368.619H1658.68V460.999C1658.68 481.048 1670.48 492.448 1688.17 492.448C1690.92 492.448 1693.28 492.055 1695.24 491.662L1697.99 490.482V516.034C1696.82 516.821 1695.24 517.607 1693.67 518C1690.13 519.179 1685.81 519.966 1680.31 519.966C1653.18 519.966 1629.2 496.379 1629.2 460.999ZM1725.64 580.897V557.311C1743.33 557.311 1750.79 549.449 1757.08 533.724L1764.95 514.069L1696.15 341.101H1727.6L1780.67 476.724L1833.74 341.101H1865.19L1788.53 533.724C1774.38 569.497 1760.62 582.863 1737.43 582.863C1734.28 582.863 1731.93 582.47 1729.17 582.077L1725.64 580.897Z" fill="#1878E1"/>
<defs>
<linearGradient id="paint0_linear_15_302" x1="337.618" y1="343.918" x2="337.618" y2="469.352" gradientUnits="userSpaceOnUse">
<stop offset="0.0288462" stop-color="#4DA3FF"/>
<stop offset="0.466346" stop-color="#1878E1"/>
<stop offset="0.927885" stop-color="#0F4CB8"/>
</linearGradient>
</defs>
</svg>
